<svg width="64" height="64" viewBox="0 0 64 64" fill="none" xmlns="http://www.w3.org/2000/svg">
<rect width="64" height="64" rx="12" fill="#191919"/>
<path fill-rule="evenodd" clip-rule="evenodd" d="M23.5552 17.3134C28.6296 14.3955 34.2798 13.1452 39.4621 13.7912C44.7574 14.451 48.9414 17.0036 51.2456 20.9761C53.5498 24.9486 53.6751 29.8336 51.6022 34.7291C49.5727 39.5225 45.6599 43.7686 40.5854 46.6865C36.3839 49.1022 31.7894 50.3751 27.3914 50.3751C26.4767 50.3751 25.5706 50.3195 24.6785 50.2087C19.3832 49.5489 15.1992 46.9965 12.895 43.024C10.5908 39.0515 10.4655 34.1664 12.5384 29.271C14.5678 24.4776 18.4807 20.2313 23.5552 17.3134ZM26.8234 18.6326C26.7508 18.6667 26.6785 18.7017 26.606 18.7366C25.1687 19.8091 23.8132 21.3189 22.4806 23.4004C17.78 30.7427 18.9468 42.5754 25.0507 46.122C26.4193 46.9172 27.849 47.3691 29.2333 47.5332C25.534 45.0554 22.3919 39.1003 22.3919 31.9775H22.3937C22.3941 26.4789 24.2673 21.6765 26.8234 18.6326ZM20.83 22.5454C14.5539 28.0488 12.1061 35.876 15.4131 41.5798C16.9378 44.2106 19.5074 46.0846 22.782 46.9995C19.9353 45.0146 17.5052 41.6143 16.9417 37.822C16.2861 33.4131 17.3766 28.6544 19.6982 24.4222C20.061 23.7613 20.4386 23.1358 20.83 22.5454ZM25.2004 33.2157C25.343 36.795 26.1029 40.1095 27.3776 42.6534C28.388 44.6708 29.6522 46.0131 30.9565 46.4945C30.8139 42.915 29.8799 39.7737 28.6052 37.2298C27.5949 35.2124 26.5047 33.6971 25.2004 33.2157ZM38.8466 33.2157C37.5423 33.6971 36.4536 35.2106 35.4415 37.2298C34.1668 39.7737 33.2329 42.9133 33.0903 46.4945C34.3946 46.0131 35.6571 44.6725 36.6692 42.6534C37.9439 40.1095 38.704 36.7968 38.8466 33.2157ZM34.9739 16.4095C34.9197 16.4139 34.8655 16.4182 34.8112 16.4231C38.5105 18.9004 41.6528 24.8551 41.6533 31.9775L41.6523 32.1977C41.6033 37.5882 39.757 42.2912 37.2467 45.296C38.9506 44.1459 40.4537 42.3623 42.6272 38.461C45.5488 33.2175 45.0217 22.7372 39.7089 17.9907C38.1922 16.6341 36.1002 16.4449 34.9739 16.4095ZM32.0306 21.1058C31.4387 27.9276 29.2537 31.9146 25.1035 31.9783C29.4601 32.0485 31.5167 36.5787 31.9388 44.0735C32.3923 36.5782 34.5831 32.0479 38.9425 31.9783C34.8255 31.9125 32.6426 27.8686 32.0306 21.1058ZM41.3362 16.9483C47.0579 20.7603 49.6292 30.9195 44.4165 39.5157C43.9814 40.3088 43.4923 41.0662 42.9587 41.7841C45.6651 39.5195 47.76 36.7812 49.0179 33.8114C50.757 29.7021 50.6769 25.6465 48.7901 22.3927C47.2088 19.6657 44.5484 17.8304 41.3362 16.9483ZM30.9549 17.4641C29.6507 17.9455 28.3882 19.2859 27.3761 21.305C26.1013 23.8488 25.3412 27.1618 25.1986 30.7429C26.5029 30.2615 27.5916 28.7479 28.6037 26.7288C29.8784 24.1849 30.8123 21.0453 30.9549 17.4641ZM33.0903 17.4641C33.2329 21.0435 34.1668 24.1849 35.4415 26.7288C36.4519 28.7462 37.5423 30.2615 38.8466 30.7429C38.704 27.1635 37.9439 23.8491 36.6692 21.3052C35.6588 19.2878 34.3946 17.9455 33.0903 17.4641Z" fill="#FFFAEE"/>
</svg>
